<svg xmlns="http://www.w3.org/2000/svg" viewBox="0 0 128 128" width="128" height="128">
  <!-- buddy logo: stylized eye with { } as iris/pupil -->
  <!-- Ultra-minimal, single stroke weight, white on transparent -->

  <!-- Outer eye shape — two curved strokes -->
  <path
    d="M16 64 C16 64, 40 24, 64 24 C88 24, 112 64, 112 64 C112 64, 88 104, 64 104 C40 104, 16 64, 16 64 Z"
    fill="none"
    stroke="white"
    stroke-width="4"
    stroke-linecap="round"
    stroke-linejoin="round"
  />

  <!-- Left bracket { as iris -->
  <path
    d="M52 48 L48 48 C45 48, 44 50, 44 52 L44 58 C44 60, 42 62, 40 64 C42 66, 44 68, 44 70 L44 76 C44 78, 45 80, 48 80 L52 80"
    fill="none"
    stroke="white"
    stroke-width="3.5"
    stroke-linecap="round"
    stroke-linejoin="round"
  />

  <!-- Right bracket } as iris -->
  <path
    d="M76 48 L80 48 C83 48, 84 50, 84 52 L84 58 C84 60, 86 62, 88 64 C86 66, 84 68, 84 70 L84 76 C84 78, 83 80, 80 80 L76 80"
    fill="none"
    stroke="white"
    stroke-width="3.5"
    stroke-linecap="round"
    stroke-linejoin="round"
  />
</svg>
